<?xml version="1.0" standalone="no"?>
<!DOCTYPE svg PUBLIC "-//W3C//DTD SVG 20010904//EN"
 "http://www.w3.org/TR/2001/REC-SVG-20010904/DTD/svg10.dtd">
<svg version="1.0" xmlns="http://www.w3.org/2000/svg"
 width="894.000000pt" height="894.000000pt" viewBox="0 0 894.000000 894.000000"
 preserveAspectRatio="xMidYMid meet">
<metadata>
Created by potrace 1.11, written by Peter Selinger 2001-2013
</metadata>
<g transform="translate(0.000000,894.000000) scale(0.100000,-0.100000)"
fill="#000000" stroke="none">
<path d="M10 4470 l0 -4460 4460 0 4460 0 0 4460 0 4460 -4460 0 -4460 0 0
-4460z m2920 2930 l0 -1390 -1390 0 -1390 0 0 1383 c0 761 3 1387 7 1390 3 4
629 7 1390 7 l1383 0 0 -1390z m2930 0 l0 -1390 -1390 0 -1390 0 0 1390 0
1390 1390 0 1390 0 0 -1390z m2928 -2 l2 -1388 -1390 0 -1390 0 0 1390 0 1390
1388 -2 1387 -3 3 -1387z m-5858 -2928 l0 -1390 -1390 0 -1390 0 0 1390 0
1390 1390 0 1390 0 0 -1390z m2930 0 l0 -1390 -1390 0 -1390 0 0 1390 0 1390
1390 0 1390 0 0 -1390z m2930 0 l0 -1390 -1390 0 -1390 0 0 1390 0 1390 1390
0 1390 0 0 -1390z m-5860 -2930 l0 -1390 -1388 2 -1387 3 -3 1388 -2 1387
1390 0 1390 0 0 -1390z m2930 0 l0 -1390 -1390 0 -1390 0 0 1390 0 1390 1390
0 1390 0 0 -1390z m2928 3 l-3 -1388 -1387 -3 -1388 -2 0 1390 0 1390 1390 0
1390 0 -2 -1387z"/>
<path d="M4353 8560 c-475 -48 -874 -381 -1007 -841 -189 -654 224 -1332 892
-1469 137 -27 327 -27 464 0 221 45 407 142 571 299 529 503 477 1347 -109
1789 -78 59 -237 141 -333 171 -140 45 -332 65 -478 51z"/>
<path d="M7201 5624 c-230 -39 -440 -145 -613 -312 -239 -230 -358 -509 -358
-842 0 -313 106 -579 319 -803 460 -484 1218 -489 1683 -11 83 86 122 137 182
239 162 281 195 648 85 963 -186 533 -739 860 -1298 766z"/>
<path d="M1333 2696 c-517 -98 -900 -519 -953 -1046 -34 -348 106 -716 366
-959 354 -331 878 -409 1309 -197 291 144 497 380 599 686 47 143 60 241 53
419 -7 208 -54 368 -158 543 -158 266 -416 458 -719 538 -108 28 -384 37 -497
16z"/>
<path d="M4238 2691 c-293 -64 -531 -216 -707 -451 -380 -508 -277 -1236 229
-1624 571 -439 1407 -255 1743 383 352 667 -10 1485 -741 1678 -134 36 -393
42 -524 14z"/>
<path d="M7183 2695 c-229 -41 -443 -155 -613 -325 -170 -170 -285 -390 -325
-618 -19 -109 -19 -305 0 -414 132 -758 967 -1182 1661 -843 710 346 879 1270
339 1852 -163 177 -402 306 -644 348 -102 18 -319 18 -418 0z"/>
</g>
</svg>
