<?xml version="1.0" standalone="no"?>
<!DOCTYPE svg PUBLIC "-//W3C//DTD SVG 20010904//EN"
 "http://www.w3.org/TR/2001/REC-SVG-20010904/DTD/svg10.dtd">
<svg version="1.0" xmlns="http://www.w3.org/2000/svg"
 width="586.000000pt" height="586.000000pt" viewBox="0 0 586.000000 586.000000"
 preserveAspectRatio="xMidYMid meet">
<metadata>
Created by potrace 1.14, written by Peter Selinger 2001-2017
</metadata>
<g transform="translate(0.000000,586.000000) scale(0.100000,-0.100000)"
fill="#000000" stroke="none">
<path d="M500 4385 l0 -975 485 0 485 0 0 -1455 0 -1455 490 0 490 0 0 485 0
485 480 0 480 0 0 -485 0 -485 490 0 490 0 0 1455 0 1455 485 0 485 0 0 975 0
975 -490 0 -490 0 0 -485 0 -485 -480 0 -480 0 0 485 0 485 -490 0 -490 0 0
-485 0 -485 -480 0 -480 0 0 485 0 485 -490 0 -490 0 0 -975z m2910 -485 l0
-480 -480 0 -480 0 0 480 0 480 480 0 480 0 0 -480z"/>
</g>
</svg>
