<?xml version="1.0" standalone="no"?>
<!DOCTYPE svg PUBLIC "-//W3C//DTD SVG 20010904//EN"
 "http://www.w3.org/TR/2001/REC-SVG-20010904/DTD/svg10.dtd">
<svg version="1.0" xmlns="http://www.w3.org/2000/svg"
 width="650.000000pt" height="650.000000pt" viewBox="0 0 650.000000 650.000000"
 preserveAspectRatio="xMidYMid meet">
<metadata>
Created by potrace 1.14, written by Peter Selinger 2001-2017
</metadata>
<g transform="translate(0.000000,650.000000) scale(0.100000,-0.100000)"
fill="#000000" stroke="none">
<path d="M920 4275 l0 -935 465 0 465 0 0 -1400 0 -1400 470 0 470 0 0 465 0
465 465 0 465 0 0 -465 0 -465 470 0 470 0 0 1400 0 1400 465 0 465 0 0 935 0
935 -470 0 -470 0 0 -465 0 -465 -465 0 -465 0 0 465 0 465 -465 0 -465 0 0
-465 0 -465 -465 0 -465 0 0 465 0 465 -470 0 -470 0 0 -935z m2800 -470 l0
-465 -465 0 -465 0 0 465 0 465 465 0 465 0 0 -465z"/>
<path d="M2981 4218 c-67 -15 -135 -88 -151 -161 -32 -155 49 -302 321 -585
l103 -106 113 118 c154 160 229 257 272 346 33 69 36 82 36 167 0 86 -2 94
-30 135 -41 58 -103 91 -169 91 -65 0 -118 -27 -177 -90 l-45 -48 -43 48 c-69
77 -143 104 -230 85z m124 -47 c36 -16 125 -102 125 -121 0 -4 -53 -13 -119
-19 -65 -7 -142 -21 -170 -32 -29 -11 -57 -16 -63 -13 -17 11 -3 99 22 134 26
36 90 70 135 70 17 0 48 -9 70 -19z m460 -12 c49 -34 75 -91 74 -165 -1 -32
-3 -51 -6 -42 -7 29 -82 57 -168 63 -80 6 -163 22 -177 34 -14 12 47 84 97
113 61 36 124 35 180 -3z"/>
</g>
</svg>
