<?xml version="1.0" standalone="no"?>
<!DOCTYPE svg PUBLIC "-//W3C//DTD SVG 20010904//EN"
 "http://www.w3.org/TR/2001/REC-SVG-20010904/DTD/svg10.dtd">
<svg version="1.0" xmlns="http://www.w3.org/2000/svg"
 width="586.000000pt" height="586.000000pt" viewBox="0 0 586.000000 586.000000"
 preserveAspectRatio="xMidYMid meet">
<metadata>
Created by potrace 1.14, written by Peter Selinger 2001-2017
</metadata>
<g transform="translate(0.000000,586.000000) scale(0.100000,-0.100000)"
fill="#000000" stroke="none">
<path d="M497 5363 c-4 -3 -7 -444 -7 -980 l0 -973 490 0 490 0 0 -1460 0
-1460 490 0 490 0 0 490 0 490 480 0 480 0 0 -490 0 -490 490 0 490 0 0 1460
0 1460 490 0 490 0 -2 978 -3 977 -492 3 -493 2 0 -490 0 -490 -477 2 -478 3
-3 488 -2 487 -490 0 -490 0 -2 -487 -3 -488 -477 -3 -478 -2 0 490 0 490
-488 0 c-269 0 -492 -3 -495 -7z m2913 -1463 l0 -480 -480 0 -480 0 0 480 0
480 480 0 480 0 0 -480z"/>
</g>
</svg>
